<?xml version="1.0" standalone="no"?>
<!DOCTYPE svg PUBLIC "-//W3C//DTD SVG 20010904//EN"
 "http://www.w3.org/TR/2001/REC-SVG-20010904/DTD/svg10.dtd">
<svg version="1.0" xmlns="http://www.w3.org/2000/svg" style="vertical-align:top"
 width="300.000000pt" height="300.000000pt" viewBox="0 0 300.000000 300.000000" 
 preserveAspectRatio="xMidYMid meet">
<metadata>
Created by potrace 1.10, written by Peter Selinger 2001-2011
</metadata>
<g transform="translate(0.000000,300.000000) scale(0.050000,-0.050000)"
fill="#fccc8a" stroke="none">
<path d="M5205 5928 c17 -17 271 -19 288 -2 7 8 -57 14 -143 14 -86 0 -151 -5
-145 -12z"/>
<path d="M5525 5928 c18 -18 154 -21 181 -4 13 9 -25 16 -84 16 -60 0 -103 -5
-97 -12z"/>
<path d="M2260 3000 c0 -427 7 -660 20 -660 13 0 20 233 20 660 0 427 -7 660
-20 660 -13 0 -20 -233 -20 -660z"/>
<path d="M1861 3485 c-74 -159 -96 -258 -80 -356 9 -55 22 -130 28 -169 12
-70 12 -70 -33 20 l-45 90 -11 -160 -11 -160 -17 125 c-21 156 -43 158 -72 10
-46 -231 -69 -251 -43 -38 20 171 0 184 -66 40 -68 -148 -78 -130 -30 54 42
164 49 239 20 239 -10 0 -24 -17 -30 -37 -15 -47 -91 -118 -91 -85 0 55 83
178 178 264 118 108 123 126 43 167 -165 86 -278 -20 -310 -290 -12 -101 -6
-162 41 -424 13 -71 10 -75 -39 -75 -53 0 -53 1 -53 155 -1 258 -101 451 -153
296 -16 -46 -21 -43 -87 70 -98 165 -184 173 -123 12 l23 -62 -61 74 c-104
126 -161 70 -70 -67 l54 -81 -60 44 c-107 79 -140 9 -42 -92 l60 -62 -60 9
c-102 15 -73 -45 64 -132 157 -99 187 -133 245 -277 54 -132 105 -175 62 -52
-63 178 -109 241 -241 327 -135 89 -162 126 -51 68 100 -52 96 -18 -10 90
-111 113 -105 131 13 38 108 -86 117 -60 29 74 -95 142 -81 162 21 30 114
-149 136 -136 67 39 -51 129 -23 112 60 -36 115 -205 167 -238 147 -95 -7 50
-6 90 1 90 31 0 60 -123 70 -300 12 -186 13 -190 69 -209 69 -24 121 29 106
109 -98 501 -22 781 189 695 l63 -26 -93 -76 c-99 -81 -200 -250 -180 -302 16
-42 81 -39 106 4 28 48 27 36 -15 -125 -48 -183 -3 -280 62 -136 25 55 25 55
35 -35 14 -120 62 -120 93 1 13 50 25 71 25 47 5 -127 102 -100 103 29 1 77 5
86 20 49 48 -121 103 -34 66 105 -41 155 -34 285 23 407 28 59 50 115 50 125
0 37 -35 16 -59 -37z"/>
<path d="M3375 3338 c-55 -32 -45 -115 15 -130 94 -23 154 87 71 131 -46 25
-42 25 -86 -1z"/>
<path d="M4275 3347 c33 -14 36 -507 3 -507 -14 0 -18 18 -11 45 11 43 10 44
-18 6 -26 -35 -29 -29 -29 76 0 180 -63 237 -220 203 -97 -21 -131 -150 -40
-150 46 0 88 51 73 90 -7 16 -4 30 5 30 21 0 42 -50 42 -99 0 -26 -21 -39 -79
-49 -50 -8 -88 -27 -101 -52 -49 -91 82 -180 161 -109 22 19 39 25 39 12 0
-28 90 -52 122 -32 14 9 76 14 139 11 l113 -5 -14 92 c-7 50 -11 91 -7 91 15
0 66 -146 56 -162 -6 -10 41 -18 105 -18 64 0 106 7 94 15 -13 8 -51 66 -86
127 l-63 113 52 34 c92 60 118 37 125 -114 7 -153 56 -213 148 -183 25 8 96
13 156 11 85 -3 102 1 75 18 -28 17 -35 50 -35 170 l0 149 -95 0 c-58 0 -85
-7 -69 -17 35 -22 25 -266 -11 -278 -19 -6 -25 31 -25 143 l0 152 -175 -2
c-96 0 -163 -6 -149 -12 20 -8 15 -23 -18 -58 -69 -74 -78 -61 -78 112 l0 160
-105 -2 c-58 0 -94 -6 -80 -11z m-195 -416 c0 -50 -29 -84 -48 -55 -14 24 9
104 30 104 10 0 18 -22 18 -49z"/>
<path d="M2735 3297 c31 -31 36 -457 5 -457 -11 0 -20 -9 -20 -20 0 -25 94
-27 109 -2 6 10 2 22 -10 26 -13 4 -19 67 -15 166 l6 160 48 -175 c45 -164 51
-175 101 -175 51 0 56 9 95 175 l41 175 2 -163 c2 -114 -5 -167 -22 -174 -14
-5 80 -11 208 -11 l233 -2 -20 85 c-10 47 -14 123 -8 170 l11 85 -84 0 -85 0
7 -160 c6 -151 4 -160 -35 -160 -51 0 -67 447 -17 467 14 5 -25 11 -87 11
l-112 2 -36 -171 c-37 -177 -47 -192 -62 -96 -5 31 -21 102 -35 157 l-25 100
-109 6 c-88 5 -104 1 -84 -19z"/>
<path d="M3781 3221 c-15 -27 -42 -41 -79 -41 -69 0 -162 -69 -162 -120 0 -58
22 -100 52 -100 15 0 28 -9 28 -20 0 -36 133 -21 187 22 55 42 61 118 14 165
-12 12 -20 39 -19 62 2 35 4 36 12 5 13 -51 96 -37 96 16 0 58 -100 67 -129
11z m-61 -181 c0 -55 -9 -100 -20 -100 -11 0 -20 45 -20 100 0 55 9 100 20
100 11 0 20 -45 20 -100z"/>
<path d="M3564 2896 c-61 -61 -23 -96 123 -113 85 -11 103 -20 103 -53 0 -64
-157 -58 -167 6 -8 58 -89 54 -100 -5 -21 -109 291 -129 362 -23 65 97 -27
202 -160 180 -50 -8 -85 -4 -94 10 -17 28 -37 28 -67 -2z"/>
</g>
</svg>
